<svg xmlns="http://www.w3.org/2000/svg" viewBox="0 0 95.813 95.794">
  <defs>
    <style>
      .cls-1, .cls-2 {
        fill: #0f2147;
      }

      .cls-2 {
        stroke: #0f2147;
        stroke-width: 0.8px;
      }
    </style>
  </defs>
  <g id="Play" transform="translate(0.406 0.368)">
    <g id="Group_30" data-name="Group 30" transform="translate(12.529 57.465)">
      <g id="Group_29" data-name="Group 29">
        <path id="Path_26" data-name="Path 26" class="cls-1" d="M87.512,295.858H81.251V289.6a1.565,1.565,0,0,0-1.565-1.565H73.425A1.565,1.565,0,0,0,71.86,289.6v6.261H65.6a1.565,1.565,0,0,0-1.565,1.565v6.261a1.565,1.565,0,0,0,1.565,1.565h6.26v6.261a1.565,1.565,0,0,0,1.565,1.565h6.261a1.565,1.565,0,0,0,1.565-1.565v-6.261h6.261a1.565,1.565,0,0,0,1.565-1.565v-6.261a1.565,1.565,0,0,0-1.565-1.568Zm-1.565,6.261H79.686a1.565,1.565,0,0,0-1.565,1.565v6.261h-3.13v-6.261a1.565,1.565,0,0,0-1.565-1.565H67.164v-3.13h6.261a1.565,1.565,0,0,0,1.565-1.565v-6.261h3.13v6.261a1.565,1.565,0,0,0,1.565,1.565h6.261Z" transform="translate(-64.034 -288.032)"/>
      </g>
    </g>
    <g id="Group_32" data-name="Group 32" transform="translate(0 0.032)">
      <g id="Group_31" data-name="Group 31">
        <path id="Path_27" data-name="Path 27" class="cls-2" d="M94.835,66.805c-1.214-10.911-11.46-21.118-22.379-22.282a26.277,26.277,0,0,0-2.793-.158H52.249V38.031H49.083V34.865a6.333,6.333,0,0,0-6.332-6.333H34.835a3.167,3.167,0,1,1,0-6.333h25.33a6.333,6.333,0,1,0,0-12.667H52.249a3.166,3.166,0,0,1-3.166-3.167V.032H45.917V6.365A6.333,6.333,0,0,0,52.249,12.7h7.916a3.167,3.167,0,1,1,0,6.334H34.835a6.333,6.333,0,0,0,0,12.667h7.916a3.166,3.166,0,0,1,3.166,3.167v3.167H42.751v6.333H25.337a25.825,25.825,0,0,0-2.8.158C11.617,45.695,1.378,55.9.167,66.813a25.33,25.33,0,0,0,38.5,24.418,15.5,15.5,0,0,1,6.948-2.456,24.412,24.412,0,0,1,3.681-.013,15.621,15.621,0,0,1,7.057,2.483,25.331,25.331,0,0,0,38.48-24.44ZM45.917,41.2h3.166v3.167H45.917ZM86.183,84.476a22.147,22.147,0,0,1-28.16,4.077,18.679,18.679,0,0,0-8.5-2.95q-1-.073-2.023-.073c-.72,0-1.425.03-2.134.085A18.621,18.621,0,0,0,37,88.538,22.164,22.164,0,0,1,3.314,67.164C4.356,57.788,13.5,48.681,22.881,47.672a22.77,22.77,0,0,1,2.455-.141H69.663a23.287,23.287,0,0,1,2.455.131C81.5,48.671,90.641,57.779,91.686,67.155a22.01,22.01,0,0,1-5.5,17.321Z" transform="translate(0 -0.032)"/>
      </g>
    </g>
    <g id="Group_34" data-name="Group 34" transform="translate(63.441 53.959)">
      <g id="Group_33" data-name="Group 33">
        <path id="Path_28" data-name="Path 28" class="cls-1" d="M326.3,272.032a6.261,6.261,0,1,0,6.261,6.261,6.261,6.261,0,0,0-6.261-6.261Zm0,9.391a3.13,3.13,0,1,1,3.13-3.13,3.13,3.13,0,0,1-3.13,3.13Z" transform="translate(-320.034 -272.032)"/>
      </g>
    </g>
    <g id="Group_36" data-name="Group 36" transform="translate(63.441 73.118)">
      <g id="Group_35" data-name="Group 35">
        <path id="Path_29" data-name="Path 29" class="cls-1" d="M326.3,368.032a6.261,6.261,0,1,0,6.261,6.261A6.261,6.261,0,0,0,326.3,368.032Zm0,9.391a3.13,3.13,0,1,1,3.13-3.13,3.13,3.13,0,0,1-3.13,3.13Z" transform="translate(-320.034 -368.032)"/>
      </g>
    </g>
    <g id="Group_38" data-name="Group 38" transform="translate(52.34 63.476)">
      <g id="Group_37" data-name="Group 37">
        <path id="Path_30" data-name="Path 30" class="cls-1" d="M270.3,320.032a6.261,6.261,0,1,0,6.261,6.261,6.261,6.261,0,0,0-6.261-6.261Zm0,9.391a3.13,3.13,0,1,1,3.13-3.13,3.13,3.13,0,0,1-3.13,3.13Z" transform="translate(-264.034 -320.032)"/>
      </g>
    </g>
    <g id="Group_40" data-name="Group 40" transform="translate(74.645 63.476)">
      <g id="Group_39" data-name="Group 39">
        <path id="Path_31" data-name="Path 31" class="cls-1" d="M382.3,320.032a6.261,6.261,0,1,0,6.261,6.261,6.261,6.261,0,0,0-6.261-6.261Zm0,9.391a3.13,3.13,0,1,1,3.13-3.13,3.13,3.13,0,0,1-3.13,3.13Z" transform="translate(-376.034 -320.032)"/>
      </g>
    </g>
  </g>
</svg>
